<svg xmlns="http://www.w3.org/2000/svg" width="126.507" height="40" viewBox="0 0 126.507 40">
  <g id="appStore" transform="translate(0 0)">
    <g id="Group_1" data-name="Group 1">
      <path id="Path_1" data-name="Path 1" d="M116.978,0H9.535C9.168,0,8.806,0,8.44,0c-.306,0-.61.008-.919.013a13.215,13.215,0,0,0-2,.177,6.665,6.665,0,0,0-1.9.627A6.438,6.438,0,0,0,2,2,6.258,6.258,0,0,0,.819,3.618a6.6,6.6,0,0,0-.625,1.9,12.993,12.993,0,0,0-.179,2C.006,7.83,0,8.138,0,8.444V31.559c0,.31.006.611.015.922a12.992,12.992,0,0,0,.179,2,6.588,6.588,0,0,0,.625,1.9A6.208,6.208,0,0,0,2,38,6.274,6.274,0,0,0,3.616,39.18a6.7,6.7,0,0,0,1.9.631,13.454,13.454,0,0,0,2,.177c.309.007.613.011.919.011.366,0,.728,0,1.095,0H116.978c.359,0,.725,0,1.084,0,.3,0,.617,0,.922-.011a13.279,13.279,0,0,0,2-.177,6.8,6.8,0,0,0,1.908-.631A6.277,6.277,0,0,0,124.509,38a6.4,6.4,0,0,0,1.182-1.614,6.6,6.6,0,0,0,.619-1.9,13.507,13.507,0,0,0,.186-2c0-.311,0-.611,0-.922.008-.363.008-.725.008-1.094V9.536c0-.366,0-.729-.008-1.092,0-.307,0-.614,0-.921a13.5,13.5,0,0,0-.186-2,6.617,6.617,0,0,0-.619-1.9,6.466,6.466,0,0,0-2.8-2.8,6.767,6.767,0,0,0-1.908-.627,13.044,13.044,0,0,0-2-.177c-.3,0-.617-.011-.922-.013-.359,0-.725,0-1.084,0Z"/>
      <path id="Path_2" data-name="Path 2" d="M8.445,39.125c-.3,0-.6,0-.9-.011a12.688,12.688,0,0,1-1.869-.163A5.884,5.884,0,0,1,4.015,38.4a5.406,5.406,0,0,1-1.4-1.017A5.321,5.321,0,0,1,1.6,35.99a5.722,5.722,0,0,1-.543-1.657,12.413,12.413,0,0,1-.167-1.875c-.006-.211-.015-.913-.015-.913V8.444s.009-.691.015-.895a12.371,12.371,0,0,1,.166-1.872A5.756,5.756,0,0,1,1.6,4.016a5.374,5.374,0,0,1,1.015-1.4A5.566,5.566,0,0,1,4.014,1.6a5.823,5.823,0,0,1,1.653-.544A12.586,12.586,0,0,1,7.543.887l.9-.012H118.057l.913.013a12.385,12.385,0,0,1,1.858.163A5.938,5.938,0,0,1,122.5,1.6a5.594,5.594,0,0,1,2.415,2.42,5.763,5.763,0,0,1,.535,1.649,12.993,12.993,0,0,1,.174,1.887c0,.283,0,.587,0,.89.008.375.008.732.008,1.092V30.465c0,.363,0,.718-.008,1.075,0,.325,0,.623,0,.93a12.734,12.734,0,0,1-.171,1.853,5.739,5.739,0,0,1-.54,1.67,5.481,5.481,0,0,1-1.016,1.386,5.413,5.413,0,0,1-1.4,1.023,5.862,5.862,0,0,1-1.668.55,12.542,12.542,0,0,1-1.869.163c-.293.007-.6.011-.9.011l-1.084,0Z"/>
    </g>
    <g id="Group_3" data-name="Group 3">
      <g id="_Group_" data-name="&lt;Group&gt;">
        <g id="_Group_2" data-name="&lt;Group&gt;">
          <g id="_Group_3" data-name="&lt;Group&gt;">
            <path id="_Path_" data-name="&lt;Path&gt;" d="M24.772,20.3a4.949,4.949,0,0,1,2.357-4.152,5.066,5.066,0,0,0-3.991-2.158c-1.679-.176-3.307,1-4.163,1-.872,0-2.19-.987-3.608-.958a5.315,5.315,0,0,0-4.473,2.728c-1.934,3.348-.491,8.269,1.361,10.976.927,1.325,2.01,2.806,3.428,2.753,1.387-.058,1.905-.884,3.579-.884,1.659,0,2.145.884,3.591.851,1.488-.024,2.426-1.331,3.321-2.669A10.962,10.962,0,0,0,27.691,24.7,4.782,4.782,0,0,1,24.772,20.3Z" fill="#fff"/>
            <path id="_Path_2" data-name="&lt;Path&gt;" d="M22.04,12.211A4.872,4.872,0,0,0,23.155,8.72a4.957,4.957,0,0,0-3.208,1.66A4.636,4.636,0,0,0,18.8,13.741a4.1,4.1,0,0,0,3.237-1.53Z" fill="#fff"/>
          </g>
        </g>
      </g>
      <g id="_Group_4" data-name="&lt;Group&gt;">
        <g id="Group_2" data-name="Group 2">
          <path id="Path_3" data-name="Path 3" d="M35.655,14.7V9.578H33.778V8.735h4.677v.843H36.582V14.7Z" fill="#fff"/>
          <path id="Path_4" data-name="Path 4" d="M42.765,13.486a1.828,1.828,0,0,1-1.951,1.3,2.045,2.045,0,0,1-2.08-2.324,2.077,2.077,0,0,1,2.076-2.353c1.253,0,2.009.856,2.009,2.27v.31h-3.18v.05a1.19,1.19,0,0,0,1.2,1.29,1.079,1.079,0,0,0,1.071-.546Zm-3.126-1.451h2.274A1.086,1.086,0,0,0,40.8,10.868a1.152,1.152,0,0,0-1.166,1.167Zm.637-2.589,1.038-1.422h1.042L41.193,9.446Z" fill="#fff"/>
          <path id="Path_5" data-name="Path 5" d="M44.053,8.441h.889V14.7h-.889Z" fill="#fff"/>
          <path id="Path_6" data-name="Path 6" d="M50.208,13.486a1.828,1.828,0,0,1-1.951,1.3,2.045,2.045,0,0,1-2.08-2.324,2.077,2.077,0,0,1,2.076-2.353c1.253,0,2.009.856,2.009,2.27v.31h-3.18v.05a1.19,1.19,0,0,0,1.2,1.29,1.079,1.079,0,0,0,1.071-.546Zm-3.126-1.451h2.274a1.086,1.086,0,0,0-1.108-1.166,1.152,1.152,0,0,0-1.166,1.167Zm.637-2.589,1.038-1.422H49.8L48.637,9.446Z" fill="#fff"/>
          <path id="Path_7" data-name="Path 7" d="M54.4,11.67a1,1,0,0,0-1.063-.765c-.744,0-1.2.57-1.2,1.53,0,.976.459,1.559,1.2,1.559a.979.979,0,0,0,1.063-.74h.864a1.762,1.762,0,0,1-1.923,1.534,2.068,2.068,0,0,1-2.113-2.353,2.053,2.053,0,0,1,2.108-2.324,1.777,1.777,0,0,1,1.928,1.559Z" fill="#fff"/>
          <path id="Path_8" data-name="Path 8" d="M56.447,8.441h.881v2.481h.07a1.386,1.386,0,0,1,1.373-.807,1.483,1.483,0,0,1,1.551,1.679V14.7h-.89V12.014c0-.719-.335-1.083-.963-1.083a1.052,1.052,0,0,0-1.134,1.142V14.7h-.889Z" fill="#fff"/>
          <path id="Path_9" data-name="Path 9" d="M61.439,13.428c0-.811.6-1.278,1.675-1.344l1.22-.07v-.389c0-.476-.314-.744-.922-.744-.5,0-.84.182-.938.5h-.86c.091-.773.818-1.27,1.84-1.27,1.129,0,1.765.562,1.765,1.513V14.7h-.855v-.633h-.07a1.515,1.515,0,0,1-1.353.707,1.36,1.36,0,0,1-1.5-1.348Zm2.895-.385v-.376l-1.1.07c-.62.042-.9.252-.9.649s.352.641.835.641a1.062,1.062,0,0,0,1.166-.984Z" fill="#fff"/>
          <path id="Path_10" data-name="Path 10" d="M66.61,10.2h.855v.69h.066a1.221,1.221,0,0,1,1.216-.765,1.868,1.868,0,0,1,.4.037v.877a2.434,2.434,0,0,0-.5-.054A1.055,1.055,0,0,0,67.5,12.043V14.7H66.61Z" fill="#fff"/>
          <path id="Path_11" data-name="Path 11" d="M69.961,15.152h.909c.075.327.451.538,1.051.538.74,0,1.179-.352,1.179-.947v-.864h-.066a1.514,1.514,0,0,1-1.39.756c-1.149,0-1.86-.889-1.86-2.237,0-1.373.719-2.274,1.869-2.274a1.56,1.56,0,0,1,1.414.794h.07V10.2h.852v4.54c0,1.03-.807,1.683-2.08,1.683C70.784,16.422,70.056,15.917,69.961,15.152Zm3.155-2.758c0-.9-.464-1.472-1.221-1.472S70.7,11.5,70.7,12.394s.43,1.472,1.194,1.472,1.221-.57,1.221-1.472Z" fill="#fff"/>
          <path id="Path_12" data-name="Path 12" d="M79.212,13.486a1.828,1.828,0,0,1-1.951,1.3,2.045,2.045,0,0,1-2.08-2.324,2.077,2.077,0,0,1,2.076-2.353c1.253,0,2.009.856,2.009,2.27v.31h-3.18v.05a1.19,1.19,0,0,0,1.2,1.29,1.079,1.079,0,0,0,1.071-.546Zm-3.126-1.451h2.274a1.086,1.086,0,0,0-1.108-1.166,1.152,1.152,0,0,0-1.166,1.167Z" fill="#fff"/>
          <path id="Path_13" data-name="Path 13" d="M80.46,10.2h.855v.69h.066a1.221,1.221,0,0,1,1.216-.765,1.868,1.868,0,0,1,.4.037v.877a2.435,2.435,0,0,0-.5-.054,1.055,1.055,0,0,0-1.149,1.059V14.7H80.46Z" fill="#fff"/>
          <path id="Path_14" data-name="Path 14" d="M86.2,12.448c0-1.423.731-2.324,1.869-2.324a1.484,1.484,0,0,1,1.381.79h.066V8.441H90.4V14.7h-.852V13.99h-.07a1.563,1.563,0,0,1-1.414.786C86.919,14.776,86.2,13.875,86.2,12.448Zm.918,0c0,.955.45,1.53,1.2,1.53s1.212-.583,1.212-1.526-.468-1.53-1.212-1.53S87.114,11.5,87.114,12.448Z" fill="#fff"/>
          <path id="Path_15" data-name="Path 15" d="M91.6,13.428c0-.811.6-1.278,1.675-1.344l1.22-.07v-.389c0-.476-.314-.744-.922-.744-.5,0-.84.182-.938.5h-.86c.091-.773.818-1.27,1.84-1.27,1.129,0,1.766.562,1.766,1.513V14.7h-.855v-.633h-.07a1.515,1.515,0,0,1-1.353.707,1.36,1.36,0,0,1-1.5-1.348Zm2.895-.385v-.376l-1.1.07c-.62.042-.9.252-.9.649s.352.641.835.641a1.061,1.061,0,0,0,1.166-.984Z" fill="#fff"/>
          <path id="Path_16" data-name="Path 16" d="M96.773,10.2h.855v.715h.066a1.348,1.348,0,0,1,1.344-.8,1.465,1.465,0,0,1,1.559,1.675V14.7h-.889V12.01c0-.724-.314-1.083-.972-1.083a1.033,1.033,0,0,0-1.075,1.141V14.7h-.889Z" fill="#fff"/>
          <path id="Path_17" data-name="Path 17" d="M103.618,10.112c1.013,0,1.675.471,1.762,1.265h-.853c-.082-.331-.405-.542-.909-.542s-.873.235-.873.587c0,.269.228.438.716.55l.748.173c.856.2,1.258.567,1.258,1.229,0,.848-.79,1.414-1.865,1.414s-1.77-.484-1.849-1.282h.89a.914.914,0,0,0,.979.562c.554,0,.947-.248.947-.608,0-.269-.211-.442-.662-.55l-.785-.182c-.856-.2-1.253-.587-1.253-1.257C101.869,10.674,102.6,10.112,103.618,10.112Z" fill="#fff"/>
        </g>
      </g>
    </g>
    <g id="Group_4" data-name="Group 4">
      <path id="Path_18" data-name="Path 18" d="M35.2,18.067h1.859V30.485H35.2Z" fill="#fff"/>
      <path id="Path_19" data-name="Path 19" d="M39.3,22.611l1.016-4.544H42.12l-1.23,4.544Z" fill="#fff"/>
      <path id="Path_20" data-name="Path 20" d="M49.146,27.129H44.413l-1.137,3.356h-2l4.483-12.418h2.083l4.483,12.418H50.282ZM44.9,25.58h3.752l-1.85-5.448h-.052Z" fill="#fff"/>
      <path id="Path_21" data-name="Path 21" d="M62,25.959c0,2.813-1.506,4.621-3.778,4.621A3.069,3.069,0,0,1,55.376,29h-.043V33.48H53.475V21.431h1.8v1.506h.034a3.212,3.212,0,0,1,2.883-1.6C60.488,21.336,62,23.153,62,25.959Zm-1.91,0c0-1.833-.947-3.039-2.393-3.039-1.42,0-2.375,1.23-2.375,3.039,0,1.824.955,3.046,2.375,3.046,1.445,0,2.393-1.2,2.393-3.046Z" fill="#fff"/>
      <path id="Path_22" data-name="Path 22" d="M71.967,25.959c0,2.813-1.506,4.621-3.778,4.621A3.069,3.069,0,0,1,65.34,29H65.3V33.48H63.439V21.431h1.8v1.506h.034a3.212,3.212,0,0,1,2.883-1.6C70.453,21.336,71.967,23.153,71.967,25.959Zm-1.91,0c0-1.833-.947-3.039-2.393-3.039-1.42,0-2.375,1.23-2.375,3.039,0,1.824.955,3.046,2.375,3.046,1.445,0,2.393-1.2,2.393-3.046Z" fill="#fff"/>
      <path id="Path_23" data-name="Path 23" d="M78.553,27.025c.138,1.231,1.334,2.04,2.969,2.04,1.566,0,2.693-.809,2.693-1.919,0-.964-.68-1.541-2.289-1.937l-1.609-.388c-2.28-.551-3.339-1.617-3.339-3.348,0-2.143,1.867-3.614,4.519-3.614,2.624,0,4.423,1.472,4.483,3.614H84.1c-.112-1.239-1.137-1.987-2.634-1.987s-2.521.757-2.521,1.858c0,.878.654,1.395,2.255,1.79l1.368.336c2.548.6,3.606,1.626,3.606,3.443,0,2.323-1.851,3.778-4.794,3.778-2.754,0-4.613-1.421-4.733-3.667Z" fill="#fff"/>
      <path id="Path_24" data-name="Path 24" d="M90.19,19.289v2.143h1.722V22.9H90.19v4.992c0,.775.345,1.137,1.1,1.137a5.807,5.807,0,0,0,.611-.043v1.463a5.1,5.1,0,0,1-1.032.086c-1.833,0-2.548-.688-2.548-2.444V22.9H87.006V21.431h1.316V19.289Z" fill="#fff"/>
      <path id="Path_25" data-name="Path 25" d="M92.908,25.959c0-2.849,1.678-4.639,4.294-4.639s4.295,1.79,4.295,4.639S99.835,30.6,97.2,30.6,92.908,28.815,92.908,25.959Zm6.7,0c0-1.955-.9-3.108-2.4-3.108s-2.4,1.162-2.4,3.108c0,1.962.895,3.106,2.4,3.106s2.4-1.145,2.4-3.106Z" fill="#fff"/>
      <path id="Path_26" data-name="Path 26" d="M103.029,21.431H104.8v1.541h.043a2.159,2.159,0,0,1,2.178-1.636,2.866,2.866,0,0,1,.637.069v1.738a2.6,2.6,0,0,0-.835-.112,1.873,1.873,0,0,0-1.937,2.083v5.37h-1.858Z" fill="#fff"/>
      <path id="Path_27" data-name="Path 27" d="M116.226,27.826c-.25,1.644-1.851,2.771-3.9,2.771-2.634,0-4.269-1.765-4.269-4.6s1.644-4.682,4.19-4.682c2.5,0,4.08,1.721,4.08,4.466v.637h-6.395v.112a2.358,2.358,0,0,0,2.436,2.564,2.048,2.048,0,0,0,2.091-1.273Zm-6.282-2.7h4.526a2.177,2.177,0,0,0-2.221-2.3,2.292,2.292,0,0,0-2.306,2.3Z" fill="#fff"/>
    </g>
  </g>
</svg>
