<svg width="21" height="17" viewBox="0 0 21 17" fill="none" xmlns="http://www.w3.org/2000/svg">
<path d="M1.34808 4.26611L9.23808 9.52611C9.56674 9.74539 9.95298 9.86241 10.3481 9.86241C10.7432 9.86241 11.1294 9.74539 11.4581 9.52611L19.3481 4.26611M3.34808 15.2661H17.3481C17.8785 15.2661 18.3872 15.0554 18.7623 14.6803C19.1374 14.3053 19.3481 13.7965 19.3481 13.2661V3.26611C19.3481 2.73568 19.1374 2.22697 18.7623 1.8519C18.3872 1.47683 17.8785 1.26611 17.3481 1.26611H3.34808C2.81764 1.26611 2.30893 1.47683 1.93386 1.8519C1.55879 2.22697 1.34808 2.73568 1.34808 3.26611V13.2661C1.34808 13.7965 1.55879 14.3053 1.93386 14.6803C2.30893 15.0554 2.81764 15.2661 3.34808 15.2661Z" stroke="#BAB6B6" stroke-width="2" stroke-linecap="round" stroke-linejoin="round"/>
</svg>
