<svg width="27" height="27" viewBox="0 0 27 27" fill="none" xmlns="http://www.w3.org/2000/svg">
<path d="M26.7701 13.5153C26.7701 6.051 20.7774 0 13.3851 0C5.99269 0 0 6.051 0 13.5153C0 20.2612 4.89472 25.8525 11.2936 26.8664V17.4221H7.8951V13.5153H11.2936V10.5377C11.2936 7.15043 13.2919 5.27942 16.3494 5.27942C17.8138 5.27942 19.3456 5.54338 19.3456 5.54338V8.86942H17.6578C15.995 8.86942 15.4765 9.91123 15.4765 10.9801V13.5153H19.1887L18.5953 17.4221H15.4765V26.8664C21.8754 25.8525 26.7701 20.2612 26.7701 13.5153Z" fill="#1877F2"/>
<path d="M18.5953 17.3163L19.1887 13.4332H15.4764V10.9133C15.4764 9.85102 15.995 8.81552 17.6578 8.81552H19.3456V5.50968C19.3456 5.50968 17.8138 5.24731 16.3494 5.24731C13.2919 5.24731 11.2936 7.10697 11.2936 10.4737V13.4332H7.89508V17.3163H11.2936V26.7033C11.9855 26.8121 12.6847 26.8666 13.385 26.8665C14.0965 26.8665 14.795 26.8106 15.4764 26.7033V17.3163H18.5953Z" fill="white"/>
</svg>
