<svg xmlns="http://www.w3.org/2000/svg" xmlns:xlink="http://www.w3.org/1999/xlink" width="126.51" height="40" viewBox="0 0 126.51 40">
  <defs>
    <linearGradient id="linear-gradient" x1="2.472" y1="1.035" x2="2.361" y2="1.005" gradientUnits="objectBoundingBox">
      <stop offset="0" stop-color="#00a0ff"/>
      <stop offset="0.007" stop-color="#00a1ff"/>
      <stop offset="0.26" stop-color="#00beff"/>
      <stop offset="0.512" stop-color="#00d2ff"/>
      <stop offset="0.76" stop-color="#00dfff"/>
      <stop offset="1" stop-color="#00e3ff"/>
    </linearGradient>
    <linearGradient id="linear-gradient-2" x1="1.95" y1="1.879" x2="1.69" y2="1.879" gradientUnits="objectBoundingBox">
      <stop offset="0" stop-color="#ffe000"/>
      <stop offset="0.409" stop-color="#ffbd00"/>
      <stop offset="0.775" stop-color="orange"/>
      <stop offset="1" stop-color="#ff9c00"/>
    </linearGradient>
    <linearGradient id="linear-gradient-3" x1="1.926" y1="0.946" x2="1.835" y2="0.793" gradientUnits="objectBoundingBox">
      <stop offset="0" stop-color="#ff3a44"/>
      <stop offset="1" stop-color="#c31162"/>
    </linearGradient>
    <linearGradient id="linear-gradient-4" x1="1.856" y1="2.093" x2="1.897" y2="2.025" gradientUnits="objectBoundingBox">
      <stop offset="0" stop-color="#32a071"/>
      <stop offset="0.068" stop-color="#2da771"/>
      <stop offset="0.476" stop-color="#15cf74"/>
      <stop offset="0.801" stop-color="#06e775"/>
      <stop offset="1" stop-color="#00f076"/>
    </linearGradient>
  </defs>
  <g id="googleplay" transform="translate(-41.38 -231.665)">
    <g id="Google_Play_Store_badge_EN" transform="translate(41.38 231.665)">
      <path id="Path_28" data-name="Path 28" d="M121.823,40H4.687A4.865,4.865,0,0,1,0,35V5A4.858,4.858,0,0,1,4.687,0H121.823a4.86,4.86,0,0,1,4.687,5V35A4.866,4.866,0,0,1,121.823,40Z" fill-rule="evenodd"/>
      <path id="Path_29" data-name="Path 29" d="M121.823.8a4.087,4.087,0,0,1,3.94,4.2V35a4.079,4.079,0,0,1-3.94,4.2H4.687A4.087,4.087,0,0,1,.747,35V5A4.079,4.079,0,0,1,4.687.8Zm0-.8H4.687A4.865,4.865,0,0,0,0,5V35a4.858,4.858,0,0,0,4.687,5H121.823a4.86,4.86,0,0,0,4.687-5V5A4.866,4.866,0,0,0,121.823,0Z" fill-rule="evenodd"/>
      <path id="Path_31" data-name="Path 31" d="M1671.91,687.4a3.962,3.962,0,1,0,3.974,3.962A3.9,3.9,0,0,0,1671.91,687.4Zm0,6.355a2.408,2.408,0,1,1,2.234-2.4A2.293,2.293,0,0,1,1671.91,693.754Zm-8.671-6.355a3.962,3.962,0,1,0,3.974,3.962A3.9,3.9,0,0,0,1663.24,687.4Zm0,6.355a2.408,2.408,0,1,1,2.234-2.4A2.293,2.293,0,0,1,1663.24,693.754Zm-10.317-5.145v1.677h4.025a3.536,3.536,0,0,1-.911,2.111,4.107,4.107,0,0,1-3.106,1.231,4.472,4.472,0,0,1,0-8.942,4.3,4.3,0,0,1,3.031,1.2l1.189-1.189a5.847,5.847,0,0,0-4.211-1.7,6.149,6.149,0,1,0,0,12.3,5.628,5.628,0,0,0,4.295-1.728,5.564,5.564,0,0,0,1.459-3.932,5.193,5.193,0,0,0-.093-1.045h-5.681S1652.922,688.609,1652.922,688.609Zm42.2,1.305a3.682,3.682,0,0,0-3.393-2.525,3.764,3.764,0,0,0-3.735,3.962,3.873,3.873,0,0,0,3.932,3.962,3.932,3.932,0,0,0,3.3-1.758l-1.345-.9a2.253,2.253,0,0,1-1.946,1.1,2.024,2.024,0,0,1-1.926-1.2l5.3-2.195S1695.123,689.915,1695.123,689.915Zm-5.4,1.324a2.175,2.175,0,0,1,2.069-2.309,1.528,1.528,0,0,1,1.47.838Zm-4.3,3.839h1.74V683.437h-1.74Zm-2.857-6.8h-.063a2.745,2.745,0,0,0-2.091-.89,3.962,3.962,0,0,0,0,7.918,2.738,2.738,0,0,0,2.091-.9h.063v.569c0,1.512-.808,2.327-2.111,2.327a2.2,2.2,0,0,1-2-1.408l-1.512.632a3.782,3.782,0,0,0,3.507,2.339c2.039,0,3.767-1.2,3.767-4.13v-7.11h-1.644v.653Zm-2,5.475a2.409,2.409,0,0,1,0-4.8,2.228,2.228,0,0,1,2.111,2.411A2.2,2.2,0,0,1,1680.562,693.754Zm22.706-10.317h-4.16v11.641h1.74v-4.408h2.423a3.622,3.622,0,1,0,0-7.233Zm.051,5.607h-2.474v-3.995h2.474a2,2,0,1,1,0,3.995Zm10.743-1.665a3.277,3.277,0,0,0-3.106,1.779l1.542.641a1.654,1.654,0,0,1,1.584-.859,1.68,1.68,0,0,1,1.833,1.5v.123a3.9,3.9,0,0,0-1.811-.446c-1.665,0-3.354.911-3.354,2.618a2.69,2.69,0,0,0,2.887,2.567,2.449,2.449,0,0,0,2.214-1.138h.063v.9h1.677V690.6C1717.59,688.528,1716.048,687.378,1714.062,687.378Zm-.218,6.376c-.569,0-1.366-.279-1.366-.994,0-.9.994-1.243,1.842-1.243a3.02,3.02,0,0,1,1.584.393A2.094,2.094,0,0,1,1713.844,693.754Zm9.864-6.127-2,5.049h-.062l-2.07-5.049h-1.872l3.105,7.059-1.77,3.923h1.812l4.778-10.982Zm-15.659,7.451h1.739V683.437h-1.739Z" transform="translate(-1608.198 -665.392)" fill="#fff" fill-rule="evenodd"/>
      <path id="Path_32" data-name="Path 32" d="M400.525,299.47a2.271,2.271,0,0,0-.425,1.469v23.017a2.157,2.157,0,0,0,.434,1.456l.072.07,11.539-12.9V312.3L400.6,299.4Z" transform="translate(-390.807 -292.446)" fill-rule="evenodd" fill="url(#linear-gradient)"/>
      <path id="Path_33" data-name="Path 33" d="M922.149,638.467l-3.849-3.849v-.269l3.849-3.849.084.051,4.552,2.588c1.3.734,1.3,1.946,0,2.69l-4.552,2.587Z" transform="translate(-896.924 -614.483)" fill-rule="evenodd" fill="url(#linear-gradient-2)"/>
      <path id="Path_34" data-name="Path 34" d="M433.943,805.932,430.011,802,418.4,813.611a1.524,1.524,0,0,0,1.935.063l13.608-7.742" transform="translate(-408.682 -781.35)" fill-rule="evenodd" fill="url(#linear-gradient-3)"/>
      <path id="Path_35" data-name="Path 35" d="M433.943,294.522l-13.609-7.73a1.509,1.509,0,0,0-1.935.063l11.611,11.6Z" transform="translate(-408.682 -279.104)" fill-rule="evenodd" fill="url(#linear-gradient-4)"/>
      <path id="Path_36" data-name="Path 36" d="M434.25,967.7l-13.516,7.679a1.534,1.534,0,0,1-1.863.009l-.072.072.072.063a1.537,1.537,0,0,0,1.863-.009l13.609-7.73Z" transform="translate(-409.073 -943.106)" fill-rule="evenodd" opacity="0.2"/>
      <path id="Path_37" data-name="Path 37" d="M1088.148,803.21l-4.648,2.639.084.084,4.552-2.587a1.631,1.631,0,0,0,.973-1.345A1.676,1.676,0,0,1,1088.148,803.21Z" transform="translate(-1058.281 -781.838)" fill-rule="evenodd" opacity="0.12"/>
      <path id="Path_38" data-name="Path 38" d="M402.46,286.756l18.161,10.317a1.712,1.712,0,0,1,.973,1.21,1.632,1.632,0,0,0-.973-1.345L402.46,286.622c-1.3-.746-2.36-.123-2.36,1.366v.135C400.1,286.631,401.157,286.02,402.46,286.756Z" transform="translate(-390.807 -278.934)" fill="#fff" fill-rule="evenodd" opacity="0.25"/>
    </g>
    <g id="_Group_" data-name="&lt;Group&gt;" transform="translate(46.129 230.481)">
      <g id="Group_2" data-name="Group 2">
        <path id="Path_3" data-name="Path 3" d="M35.655,14.7V9.578H33.778V8.735h4.677v.843H36.582V14.7Z" fill="#fff"/>
        <path id="Path_4" data-name="Path 4" d="M42.765,13.486a1.828,1.828,0,0,1-1.951,1.3,2.045,2.045,0,0,1-2.08-2.324,2.077,2.077,0,0,1,2.076-2.353c1.253,0,2.009.856,2.009,2.27v.31h-3.18v.05a1.19,1.19,0,0,0,1.2,1.29,1.079,1.079,0,0,0,1.071-.546Zm-3.126-1.451h2.274A1.086,1.086,0,0,0,40.8,10.868a1.152,1.152,0,0,0-1.166,1.167Zm.637-2.589,1.038-1.422h1.042L41.193,9.446Z" fill="#fff"/>
        <path id="Path_5" data-name="Path 5" d="M44.053,8.441h.889V14.7h-.889Z" fill="#fff"/>
        <path id="Path_6" data-name="Path 6" d="M50.208,13.486a1.828,1.828,0,0,1-1.951,1.3,2.045,2.045,0,0,1-2.08-2.324,2.077,2.077,0,0,1,2.076-2.353c1.253,0,2.009.856,2.009,2.27v.31h-3.18v.05a1.19,1.19,0,0,0,1.2,1.29,1.079,1.079,0,0,0,1.071-.546Zm-3.126-1.451h2.274a1.086,1.086,0,0,0-1.108-1.166,1.152,1.152,0,0,0-1.166,1.167Zm.637-2.589,1.038-1.422H49.8L48.637,9.446Z" fill="#fff"/>
        <path id="Path_7" data-name="Path 7" d="M54.4,11.67a1,1,0,0,0-1.063-.765c-.744,0-1.2.57-1.2,1.53,0,.976.459,1.559,1.2,1.559a.979.979,0,0,0,1.063-.74h.864a1.762,1.762,0,0,1-1.923,1.534,2.068,2.068,0,0,1-2.113-2.353,2.053,2.053,0,0,1,2.108-2.324,1.777,1.777,0,0,1,1.928,1.559Z" fill="#fff"/>
        <path id="Path_8" data-name="Path 8" d="M56.447,8.441h.881v2.481h.07a1.386,1.386,0,0,1,1.373-.807,1.483,1.483,0,0,1,1.551,1.679V14.7h-.89V12.014c0-.719-.335-1.083-.963-1.083a1.052,1.052,0,0,0-1.134,1.142V14.7h-.889Z" fill="#fff"/>
        <path id="Path_9" data-name="Path 9" d="M61.439,13.428c0-.811.6-1.278,1.675-1.344l1.22-.07v-.389c0-.476-.314-.744-.922-.744-.5,0-.84.182-.938.5h-.86c.091-.773.818-1.27,1.84-1.27,1.129,0,1.765.562,1.765,1.513V14.7h-.855v-.633h-.07a1.515,1.515,0,0,1-1.353.707,1.36,1.36,0,0,1-1.5-1.348Zm2.895-.385v-.376l-1.1.07c-.62.042-.9.252-.9.649s.352.641.835.641a1.062,1.062,0,0,0,1.166-.984Z" fill="#fff"/>
        <path id="Path_10" data-name="Path 10" d="M66.61,10.2h.855v.69h.066a1.221,1.221,0,0,1,1.216-.765,1.868,1.868,0,0,1,.4.037v.877a2.434,2.434,0,0,0-.5-.054A1.055,1.055,0,0,0,67.5,12.043V14.7H66.61Z" fill="#fff"/>
        <path id="Path_11" data-name="Path 11" d="M69.961,15.152h.909c.075.327.451.538,1.051.538.74,0,1.179-.352,1.179-.947v-.864h-.066a1.514,1.514,0,0,1-1.39.756c-1.149,0-1.86-.889-1.86-2.237,0-1.373.719-2.274,1.869-2.274a1.56,1.56,0,0,1,1.414.794h.07V10.2h.852v4.54c0,1.03-.807,1.683-2.08,1.683C70.784,16.422,70.056,15.917,69.961,15.152Zm3.155-2.758c0-.9-.464-1.472-1.221-1.472S70.7,11.5,70.7,12.394s.43,1.472,1.194,1.472,1.221-.57,1.221-1.472Z" fill="#fff"/>
        <path id="Path_12" data-name="Path 12" d="M79.212,13.486a1.828,1.828,0,0,1-1.951,1.3,2.045,2.045,0,0,1-2.08-2.324,2.077,2.077,0,0,1,2.076-2.353c1.253,0,2.009.856,2.009,2.27v.31h-3.18v.05a1.19,1.19,0,0,0,1.2,1.29,1.079,1.079,0,0,0,1.071-.546Zm-3.126-1.451h2.274a1.086,1.086,0,0,0-1.108-1.166,1.152,1.152,0,0,0-1.166,1.167Z" fill="#fff"/>
        <path id="Path_13" data-name="Path 13" d="M80.46,10.2h.855v.69h.066a1.221,1.221,0,0,1,1.216-.765,1.868,1.868,0,0,1,.4.037v.877a2.435,2.435,0,0,0-.5-.054,1.055,1.055,0,0,0-1.149,1.059V14.7H80.46Z" fill="#fff"/>
        <path id="Path_14" data-name="Path 14" d="M86.2,12.448c0-1.423.731-2.324,1.869-2.324a1.484,1.484,0,0,1,1.381.79h.066V8.441H90.4V14.7h-.852V13.99h-.07a1.563,1.563,0,0,1-1.414.786C86.919,14.776,86.2,13.875,86.2,12.448Zm.918,0c0,.955.45,1.53,1.2,1.53s1.212-.583,1.212-1.526-.468-1.53-1.212-1.53S87.114,11.5,87.114,12.448Z" fill="#fff"/>
        <path id="Path_15" data-name="Path 15" d="M91.6,13.428c0-.811.6-1.278,1.675-1.344l1.22-.07v-.389c0-.476-.314-.744-.922-.744-.5,0-.84.182-.938.5h-.86c.091-.773.818-1.27,1.84-1.27,1.129,0,1.766.562,1.766,1.513V14.7h-.855v-.633h-.07a1.515,1.515,0,0,1-1.353.707,1.36,1.36,0,0,1-1.5-1.348Zm2.895-.385v-.376l-1.1.07c-.62.042-.9.252-.9.649s.352.641.835.641a1.061,1.061,0,0,0,1.166-.984Z" fill="#fff"/>
        <path id="Path_16" data-name="Path 16" d="M96.773,10.2h.855v.715h.066a1.348,1.348,0,0,1,1.344-.8,1.465,1.465,0,0,1,1.559,1.675V14.7h-.889V12.01c0-.724-.314-1.083-.972-1.083a1.033,1.033,0,0,0-1.075,1.141V14.7h-.889Z" fill="#fff"/>
        <path id="Path_17" data-name="Path 17" d="M103.618,10.112c1.013,0,1.675.471,1.762,1.265h-.853c-.082-.331-.405-.542-.909-.542s-.873.235-.873.587c0,.269.228.438.716.55l.748.173c.856.2,1.258.567,1.258,1.229,0,.848-.79,1.414-1.865,1.414s-1.77-.484-1.849-1.282h.89a.914.914,0,0,0,.979.562c.554,0,.947-.248.947-.608,0-.269-.211-.442-.662-.55l-.785-.182c-.856-.2-1.253-.587-1.253-1.257C101.869,10.674,102.6,10.112,103.618,10.112Z" fill="#fff"/>
      </g>
    </g>
  </g>
</svg>
