<svg width="27" height="27" viewBox="0 0 27 27" fill="none" xmlns="http://www.w3.org/2000/svg">
<path d="M0 13.5C0 6.04416 6.04416 0 13.5 0C20.9558 0 27 6.04416 27 13.5C27 20.9558 20.9558 27 13.5 27C6.04416 27 0 20.9558 0 13.5Z" fill="black"/>
<path d="M12.233 12.0659V11.5403C12.0529 11.5163 11.8699 11.5012 11.6808 11.5012C9.42724 11.4983 7.59375 13.3333 7.59375 15.5918C7.59375 16.9763 8.28394 18.2017 9.34022 18.9435C8.65904 18.2137 8.24192 17.2316 8.24192 16.1564C8.24192 13.9309 10.0244 12.1169 12.233 12.0659Z" fill="#25F4EE"/>
<path d="M12.332 18.0245C13.3373 18.0245 14.1595 17.2226 14.1956 16.2255L14.1986 7.31463H15.825C15.792 7.13142 15.774 6.94222 15.774 6.75H13.5534L13.5504 15.6609C13.5144 16.658 12.6921 17.4599 11.6869 17.4599C11.3748 17.4599 11.0807 17.3818 10.8196 17.2436C11.1557 17.7152 11.7079 18.0245 12.332 18.0245Z" fill="#25F4EE"/>
<path d="M18.8649 10.3389V9.84338C18.2437 9.84338 17.6676 9.66017 17.1814 9.3418C17.6135 9.83737 18.1987 10.1978 18.8649 10.3389Z" fill="#25F4EE"/>
<path d="M17.1814 9.34193C16.7072 8.79835 16.4222 8.08956 16.4222 7.3147H15.828C15.981 8.16164 16.4852 8.88845 17.1814 9.34193Z" fill="#FE2C55"/>
<path d="M11.6839 13.7206C10.6546 13.7206 9.81735 14.5585 9.81735 15.5887C9.81735 16.3065 10.2255 16.9312 10.8196 17.2435C10.5976 16.9372 10.4655 16.5618 10.4655 16.1533C10.4655 15.1232 11.3027 14.2852 12.332 14.2852C12.5241 14.2852 12.7101 14.3183 12.8842 14.3723V12.1018C12.7041 12.0778 12.5211 12.0627 12.332 12.0627C12.299 12.0627 12.269 12.0658 12.236 12.0658V13.8077C12.059 13.7536 11.8759 13.7206 11.6839 13.7206Z" fill="#FE2C55"/>
<path d="M18.8647 10.3389V12.0658C17.7124 12.0658 16.6441 11.6964 15.7739 11.0717V15.5917C15.7739 17.8472 13.9404 19.6853 11.6838 19.6853C10.8135 19.6853 10.0033 19.4089 9.34015 18.9434C10.0873 19.7453 11.1526 20.2499 12.332 20.2499C14.5856 20.2499 16.4221 18.4148 16.4221 16.1563V11.6363C17.2923 12.261 18.3606 12.6304 19.5129 12.6304V10.408C19.2878 10.408 19.0718 10.3839 18.8647 10.3389Z" fill="#FE2C55"/>
<path d="M15.7739 15.5919V11.0718C16.6442 11.6966 17.7124 12.0659 18.8648 12.0659V10.339C18.1986 10.1979 17.6134 9.8375 17.1813 9.34193C16.4851 8.88845 15.984 8.16164 15.8249 7.3147H14.1985L14.1955 16.2256C14.1595 17.2227 13.3372 18.0246 12.332 18.0246C11.7078 18.0246 11.1587 17.7152 10.8166 17.2467C10.2224 16.9314 9.81431 16.3097 9.81431 15.5919C9.81431 14.5617 10.6515 13.7238 11.6808 13.7238C11.8729 13.7238 12.0589 13.7568 12.233 13.8109V12.069C10.0244 12.117 8.24188 13.931 8.24188 16.1565C8.24188 17.2317 8.659 18.2108 9.34018 18.9436C10.0034 19.4091 10.8136 19.6854 11.6838 19.6854C13.9374 19.6854 15.7739 17.8474 15.7739 15.5919Z" fill="white"/>
</svg>
