<svg width="28" height="28" viewBox="0 0 28 28" fill="none" xmlns="http://www.w3.org/2000/svg">
<path d="M0 14C0 21.732 6.26801 28 14 28C21.732 28 28 21.732 28 14C28 6.26801 21.732 0 14 0C6.26801 0 0 6.26801 0 14Z" fill="#FF0000"/>
<path d="M20.65 10.5876C20.475 9.9751 20.0375 9.5376 19.425 9.3626C18.375 9.1001 13.9125 9.1001 13.9125 9.1001C13.9125 9.1001 9.53751 9.1001 8.40001 9.3626C7.78751 9.5376 7.35 9.9751 7.175 10.5876C7 11.7251 7 14.0001 7 14.0001C7 14.0001 7 16.2751 7.2625 17.4126C7.4375 18.0251 7.875 18.4626 8.4875 18.6376C9.5375 18.9001 14 18.9001 14 18.9001C14 18.9001 18.375 18.9001 19.5125 18.6376C20.125 18.4626 20.5625 18.0251 20.7375 17.4126C21 16.2751 21 14.0001 21 14.0001C21 14.0001 21 11.7251 20.65 10.5876ZM12.6 16.1001V11.9001L16.275 14.0001L12.6 16.1001Z" fill="white"/>
</svg>
